<?xml version="1.0" encoding="UTF-8"?>
<svg version="1.1" xmlns="http://www.w3.org/2000/svg" width="1974" height="1927">
<path d="M0 0 C2.22033593 1.60953538 4.44463933 3.21342006 6.67041016 4.81542969 C14.40751464 10.38594235 22.11206554 15.99600383 29.77587891 21.66699219 C37.81158984 27.60806714 45.93968309 33.40412487 54.125 39.13671875 C56.22912549 40.61555935 58.32576002 42.10445385 60.42041016 43.59667969 C82.62346753 59.39954923 105.43541741 74.27395885 129.21337891 87.60449219 C130.63336182 88.4047583 130.63336182 88.4047583 132.08203125 89.22119141 C191.52442115 122.54393546 256.75111482 144.76639427 325.21337891 147.10449219 C326.94503296 147.16648804 326.94503296 147.16648804 328.71166992 147.22973633 C336.55380804 147.49399918 344.39547607 147.67569495 352.24072266 147.81933594 C388.50122448 148.48850909 388.50122448 148.48850909 403.90087891 149.54199219 C405.01390381 149.61667725 406.12692871 149.6913623 407.27368164 149.76831055 C414.02002734 150.28096356 420.58328934 151.26010065 427.21337891 152.60449219 C427.54337891 154.25449219 427.87337891 155.90449219 428.21337891 157.60449219 C422.47463694 162.26980767 416.55547592 165.6646025 409.90087891 168.85449219 C407.92991811 169.81747828 405.95988003 170.78235498 403.99072266 171.74902344 C403.01345215 172.22807129 402.03618164 172.70711914 401.02929688 173.20068359 C397.72108565 174.84991322 394.46305804 176.57978539 391.20898438 178.33276367 C372.5793373 188.3645795 353.4358725 197.30489492 333.21337891 203.60449219 C332.17383057 203.93755371 332.17383057 203.93755371 331.11328125 204.27734375 C271.46834872 223.16656766 203.95092853 227.00390004 142.21337891 219.60449219 C141.23485962 219.48807373 140.25634033 219.37165527 139.24816895 219.25170898 C84.79229389 212.73920095 84.79229389 212.73920095 59.21337891 206.60449219 C58.25567596 206.37596558 58.25567596 206.37596558 57.27862549 206.14282227 C34.16118521 200.60300389 11.63378901 193.4754155 -10.78662109 185.60449219 C-11.79541321 185.2509668 -12.80420532 184.89744141 -13.84356689 184.53320312 C-30.29230149 178.75410683 -46.61038901 172.68660758 -62.85693359 166.36254883 C-66.53758577 164.93048189 -70.22032002 163.50385127 -73.90380859 162.07910156 C-82.23508476 158.8560352 -90.56534641 155.63034923 -98.89343262 152.39904785 C-222.9786022 103.65568035 -222.9786022 103.65568035 -350.75463867 124.96826172 C-354.7971949 126.78236419 -358.8015057 128.66771913 -362.78662109 130.60449219 C-363.46660156 130.93416992 -364.14658203 131.26384766 -364.84716797 131.60351562 C-418.67933741 158.08937321 -454.75187873 210.10168018 -473.80761719 265.70166016 C-474.13068848 266.65959473 -474.45375977 267.6175293 -474.78662109 268.60449219 C-475.10324707 269.53793457 -475.41987305 270.47137695 -475.74609375 271.43310547 C-504.31156676 356.98035753 -494.41994951 450.53854541 -411.16162109 682.10449219 C-405.63915839 693.08517958 -399.78667363 703.87848943 -393.78662109 714.60449219 C-393.17657227 715.69568359 -392.56652344 716.786875 -391.93798828 717.91113281 C-366.96963642 762.41938761 -338.02614316 804.48843394 -309.43591309 846.71972656 C-305.68234831 852.26827588 -301.95697424 857.83493103 -298.24671936 863.4125061 C-287.00255978 880.30886027 -275.50030048 897.03060034 -263.78662109 913.60449219 C-263.34302246 914.23323242 -262.89942383 914.86197266 -262.44238281 915.50976562 C-250.9261375 931.81285697 -239.00092129 947.81871339 -226.78662109 963.60449219 C-226.06563232 964.53817627 -226.06563232 964.53817627 -225.33007812 965.49072266 C-219.53189415 972.98613135 -213.56742759 980.30655245 -207.41162109 987.51074219 C-204.94746145 990.40000539 -202.5500111 993.33967677 -200.16162109 996.29199219 C-196.53827614 1000.74353027 -192.76698237 1005.02831674 -188.90380859 1009.27246094 C-186.42749439 1012.00006163 -184.00883923 1014.77410774 -181.59130859 1017.55371094 C-179.55703968 1019.86538015 -177.484398 1022.13980649 -175.41162109 1024.41699219 C-172.33915336 1027.81532771 -169.40219487 1031.28039742 -166.53662109 1034.85449219 C-161.88003297 1040.61395644 -156.85827933 1045.98397918 -151.79443359 1051.38183594 C-148.94436539 1054.4224355 -146.18173299 1057.52797643 -143.45849609 1060.68261719 C-141.42904037 1063.01554293 -139.35897409 1065.30960464 -137.28662109 1067.60449219 C-134.63548115 1070.54127683 -132.00371938 1073.4905176 -129.41162109 1076.47949219 C-125.99844018 1080.39832953 -122.48689971 1084.22451754 -118.96801758 1088.0480957 C-116.11367283 1091.15102432 -113.2833255 1094.27298502 -110.47412109 1097.41699219 C-99.94363087 1109.12604737 -89.07767072 1120.47917485 -77.92529297 1131.59619141 C-75.88829688 1133.62775419 -73.85680159 1135.66471055 -71.82568359 1137.70214844 C-70.50308793 1139.02408426 -69.1801826 1140.34571036 -67.85693359 1141.66699219 C-67.26405548 1142.26189453 -66.67117737 1142.85679688 -66.06033325 1143.46972656 C-62.36133661 1147.14843999 -58.52995814 1150.61998685 -54.58496094 1154.0329895 C-52.49342271 1155.86070742 -50.49839238 1157.76345153 -48.53271484 1159.72558594 C-47.82308594 1160.43392578 -47.11345703 1161.14226562 -46.38232422 1161.87207031 C-45.67011719 1162.58814453 -44.95791016 1163.30421875 -44.22412109 1164.04199219 C-43.15000977 1165.11030273 -43.15000977 1165.11030273 -42.05419922 1166.20019531 C-37.98287365 1170.27893003 -34.09554196 1174.45817648 -30.3347168 1178.82446289 C-28.34664404 1181.110386 -26.2512564 1183.2864827 -24.16162109 1185.47949219 C-2.78662109 1208.85737237 -2.78662109 1208.85737237 -2.78662109 1216.60449219 C-10.20113103 1214.58428633 -17.14694004 1211.91709899 -24.16162109 1208.79199219 C-25.77315063 1208.07619995 -25.77315063 1208.07619995 -27.41723633 1207.34594727 C-47.99094695 1198.10178379 -67.83698577 1187.76782142 -87.17382812 1176.16503906 C-89.53303509 1174.75595189 -91.90293312 1173.36907808 -94.28271484 1171.99511719 C-139.25083238 1146.00817378 -181.65880164 1115.21330152 -223.38671875 1084.375 C-225.7916088 1082.60081255 -228.20055946 1080.8322857 -230.61083984 1079.06542969 C-246.06271244 1067.73217437 -261.25251716 1056.1494279 -276.07373047 1044.00146484 C-278.35695288 1042.13934987 -280.66442827 1040.30861989 -282.97412109 1038.47949219 C-288.43199535 1034.12412675 -293.75041172 1029.6071 -299.06152344 1025.07519531 C-300.80709526 1023.58703728 -302.55645425 1022.10342024 -304.30615234 1020.62011719 C-311.04404162 1014.89318981 -317.64338387 1009.04704685 -324.13427734 1003.04199219 C-326.26152644 1001.0870534 -328.40934362 999.17567174 -330.59912109 997.29199219 C-334.60030118 993.82038005 -338.47390014 990.21522518 -342.34912109 986.60449219 C-342.97471924 986.02272217 -343.60031738 985.44095215 -344.24487305 984.84155273 C-347.30434951 981.98145879 -350.31288175 979.08887354 -353.25146484 976.10449219 C-355.59606665 973.73850209 -358.00654047 971.51420509 -360.53662109 969.34838867 C-364.62886425 965.78709414 -368.49301997 962.04307819 -372.32177734 958.20214844 C-373.00412949 957.52075302 -373.68648163 956.8393576 -374.38951111 956.13731384 C-375.82006546 954.70743478 -377.24937877 953.27631308 -378.67749023 951.84399414 C-380.84361183 949.67251507 -383.01502283 947.50642893 -385.18701172 945.34082031 C-386.58642097 943.94075017 -387.98551993 942.5403698 -389.38427734 941.13964844 C-390.02301285 940.50293716 -390.66174835 939.86622589 -391.31983948 939.21022034 C-395.11866601 935.39190131 -398.73003799 931.46104759 -402.23789978 927.37339783 C-404.47277393 924.82078784 -406.85896836 922.47502368 -409.28662109 920.10449219 C-413.03759646 916.44177507 -416.52105184 912.65535815 -419.95263672 908.69238281 C-422.97754618 905.2486893 -426.13483776 901.93173563 -429.28662109 898.60449219 C-436.22749848 891.27721544 -442.85907718 883.71626596 -449.41162109 876.04199219 C-453.20602839 871.60265688 -457.02058168 867.18216712 -460.85864258 862.78051758 C-466.32648898 856.50438775 -471.63678161 850.14565791 -476.78662109 843.60449219 C-477.71902293 842.44077577 -478.65271595 841.27809322 -479.58740234 840.11621094 C-486.09444508 832.02611935 -492.51190749 823.87645586 -498.78662109 815.60449219 C-499.24504395 815.00056641 -499.7034668 814.39664063 -500.17578125 813.77441406 C-517.41651037 791.02015228 -534.17795422 767.81243534 -549.46240234 743.69238281 C-550.83474116 741.52862146 -552.21652931 739.37108916 -553.59912109 737.21386719 C-602.7232604 660.29884157 -643.16042965 577.77399184 -687.78662109 174.60449219 C-687.45887695 173.04939941 -687.45887695 173.04939941 -687.12451172 171.46289062 C-672.12316438 102.24898191 -637.3358007 37.5044325 -582.78662109 -8.39550781 C-581.73986642 -9.3043047 -580.69441772 -10.21460685 -579.64990234 -11.12597656 C-571.91569722 -17.85490853 -564.02093405 -24.28632317 -555.78662109 -30.39550781 C-555.14837402 -30.87036621 -554.51012695 -31.34522461 -553.85253906 -31.83447266 C-470.9700778 -93.23697629 -376.38076352 -133.15574809 0 0 Z " fill="#F5A20B" transform="translate(915.78662109375,664.3955078125)"/>
<path d="M0 0 C1.52691971 -0.00101212 1.52691971 -0.00101212 3.08468628 -0.00204468 C20.26712441 0.01597138 37.03350739 0.80060769 54.0625 3.25 C55.21250488 3.41097168 56.36250977 3.57194336 57.54736328 3.73779297 C146.3539496 16.56527408 241.2399971 55.7667846 312.40625 120.77734375 C314.54345766 122.76683264 316.70874054 124.67844275 318.9375 126.5625 C322.82916329 129.94017003 326.47498947 133.55329246 330.125 137.1875 C330.9919751 138.04758667 330.9919751 138.04758667 331.87646484 138.92504883 C336.13814503 143.20184136 340.13753182 147.66372673 344.0625 152.25 C344.87303833 153.1925061 344.87303833 153.1925061 345.69995117 154.15405273 C411.48234659 231.18334011 436.97975485 331.25560395 432.33998108 455.22875977 C426.5024253 526.74186918 407.88472039 597.20198212 380.0625 663.25 C379.78662048 663.90685791 379.51074097 664.56371582 379.22650146 665.24047852 C367.70308455 692.63467369 355.1617441 719.6036515 340.59130859 745.52050781 C338.96783279 748.41901619 337.36751771 751.32955543 335.76953125 754.2421875 C323.74785012 776.06999082 310.62112332 797.08343031 296.8125 817.8125 C296.31679504 818.55714508 295.82109009 819.30179016 295.31036377 820.06900024 C288.07246938 830.92404113 280.63634526 841.62698907 273.0625 852.25 C272.40185547 853.17820557 271.74121094 854.10641113 271.06054688 855.06274414 C264.68183803 863.99649691 258.19848417 872.83048107 251.44042969 881.48193359 C249.88378818 883.47931095 248.33623625 885.48356188 246.7890625 887.48828125 C240.54359998 895.56797787 234.22429887 903.5760035 227.75561523 911.47827148 C224.21133458 915.81330367 220.74588801 920.20184993 217.3125 924.625 C213.48037691 929.54946687 209.46863161 934.22927685 205.2421875 938.82421875 C202.92657108 941.40127574 200.74044934 944.05582391 198.5625 946.75 C194.94634051 951.21997492 191.16657398 955.49131648 187.29296875 959.73828125 C185.06730649 962.24458744 182.96728439 964.81924393 180.875 967.4375 C175.97014404 973.50607398 170.63494999 979.13706664 165.28515625 984.8125 C162.38680929 987.89039058 159.58296357 991.03480175 156.82421875 994.23828125 C154.01871935 997.4419003 151.12429281 1000.56409079 148.24047852 1003.69702148 C145.40704033 1006.77713886 142.59891366 1009.87711375 139.8125 1013 C134.13583635 1019.32311645 128.30219634 1025.49976249 122.47192383 1031.6809082 C120.65081941 1033.62269377 118.83962833 1035.57205681 117.03393555 1037.52807617 C106.67052228 1048.71754049 95.93916315 1059.52848912 85.14428711 1070.29858398 C82.60743529 1072.82967724 80.07518777 1075.3653225 77.54418278 1077.90226078 C75.5598356 1079.89024318 73.57308657 1081.87581154 71.58563042 1083.86068535 C70.20410668 1085.24123676 68.8245621 1086.62376784 67.44508362 1088.00636292 C62.99712681 1092.43786187 58.49665977 1096.73603441 53.71995544 1100.81272888 C51.37935238 1102.84239502 49.22288029 1105.03123106 47.0625 1107.25 C43.57784471 1110.82883516 39.93875525 1114.12995089 36.16796875 1117.3984375 C32.71979015 1120.43078751 29.39576792 1123.59250988 26.0625 1126.75 C21.4084372 1131.15863371 16.70332385 1135.48010841 11.86181641 1139.68261719 C9.62662587 1141.62968954 7.43779997 1143.62494469 5.25 1145.625 C1.80871795 1148.73528851 -1.70071298 1151.71478312 -5.3125 1154.625 C-9.3257655 1157.86952732 -13.16163126 1161.23749324 -16.9375 1164.75 C-21.48862854 1168.97948628 -26.18047098 1172.97080131 -31.01953125 1176.8671875 C-34.39724135 1179.62542466 -37.69954599 1182.46275315 -41 1185.3125 C-45.65890878 1189.32655982 -50.36469365 1193.25417512 -55.19140625 1197.06640625 C-58.03784796 1199.32979304 -60.85533492 1201.62597289 -63.67114258 1203.92724609 C-70.69548419 1209.66386049 -77.78157692 1215.29099381 -85.00390625 1220.77734375 C-87.2678306 1222.50158513 -89.52446445 1224.23517594 -91.78125 1225.96875 C-102.34916331 1234.07326655 -113.00068415 1242.03496223 -123.84912109 1249.76025391 C-125.79657847 1251.14947356 -127.73686379 1252.54811823 -129.67578125 1253.94921875 C-178.434868 1288.99026865 -233.73334797 1327.45053599 -292.9375 1341.25 C-290.92177858 1332.20986618 -282.05504363 1324.88387975 -275.9375 1318.25 C-275.44894531 1317.71892136 -274.96039062 1317.18784271 -274.45703125 1316.64067078 C-263.43580217 1304.68753107 -251.97696028 1293.20059755 -240.4375 1281.75 C-236.90327536 1278.24255945 -233.37253001 1274.73166729 -229.84375 1271.21875 C-228.65610046 1270.04354797 -228.65610046 1270.04354797 -227.44445801 1268.84460449 C-223.29164714 1264.71003795 -219.30217027 1260.49921105 -215.49057007 1256.04708862 C-212.77429579 1252.90403301 -209.91019496 1249.8985773 -207.0625 1246.875 C-202.34531194 1241.84383112 -197.67085324 1236.78227538 -193.078125 1231.63671875 C-190.72021271 1229.00773261 -188.32794194 1226.41192229 -185.9375 1223.8125 C-181.85942814 1219.33794893 -178.02240735 1214.71506149 -174.22265625 1210.00390625 C-171.85383975 1207.14917867 -169.38823583 1204.4156079 -166.875 1201.6875 C-163.13295842 1197.61257742 -159.60554312 1193.44601353 -156.1875 1189.09765625 C-153.37145176 1185.5335952 -150.49721573 1182.01882929 -147.625 1178.5 C-143.05726928 1172.89358163 -138.55404867 1167.24272123 -134.10449219 1161.54223633 C-130.58427913 1157.0439742 -126.98907443 1152.61055408 -123.375 1148.1875 C-118.61222728 1142.35362641 -113.96645015 1136.44813855 -109.3984375 1130.4609375 C-106.77863546 1127.03049567 -104.11011989 1123.63935736 -101.4375 1120.25 C-96.73064855 1114.27305875 -92.06838848 1108.26334439 -87.44677734 1102.22021484 C-85.69360358 1099.93161693 -83.93436181 1097.64772692 -82.17578125 1095.36328125 C-74.87529335 1085.85685265 -67.7328486 1076.27846933 -60.87890625 1066.4453125 C-57.70758275 1061.89949806 -54.44723702 1057.4201073 -51.1875 1052.9375 C-46.26451058 1046.1489567 -41.53307733 1039.26528948 -36.9375 1032.25 C-35.88963504 1030.68422477 -34.84167148 1029.11851457 -33.79199219 1027.55395508 C-18.18696749 1004.26721007 -2.88354782 980.75958853 12.046875 957.03515625 C13.98606072 953.95399177 15.93347619 950.87837757 17.890625 947.80859375 C31.40856991 926.57640208 44.37050198 904.98452768 57.0625 883.25 C57.64177246 882.25887207 58.22104492 881.26774414 58.81787109 880.24658203 C68.84195233 863.06436493 78.56271631 845.72607693 88.0625 828.25 C88.38696106 827.65435242 88.71142212 827.05870483 89.04571533 826.44500732 C108.8454055 790.08417807 127.56934563 753.03993121 144.23150635 715.13336182 C145.35183048 712.59426217 146.48619721 710.06153764 147.62025452 707.52854919 C181.26781861 632.30662192 211.76964704 553.48447809 234.0625 437.25 C234.30806641 435.60741211 234.30806641 435.60741211 234.55859375 433.93164062 C239.44931767 400.52516691 240.08003972 363.51408031 234.0625 330.25 C233.87445801 329.13931152 233.68641602 328.02862305 233.49267578 326.88427734 C225.35391992 279.67690346 205.76602798 236.30201826 174.0625 200.25 C173.45019531 199.52683594 172.83789062 198.80367187 172.20703125 198.05859375 C164.05437733 188.47293178 155.02295555 179.92599999 145.0625 172.25 C144.41877441 171.74629883 143.77504883 171.24259766 143.11181641 170.72363281 C75.91052027 118.40273405 -15.92990018 95.32554871 -100.03125 95.046875 C-101.05810158 95.04263393 -101.05810158 95.04263393 -102.10569763 95.03830719 C-105.74120436 95.02347311 -109.37667316 95.0141492 -113.01220703 95.00976562 C-115.93388645 95.00542279 -118.85526358 94.99167221 -121.77685547 94.96875 C-151.59300528 94.74023706 -180.54350499 97.51820002 -210.0625 101.8125 C-222.32387275 103.58682595 -234.56654389 105.3207577 -246.90625 106.45703125 C-247.78113068 106.53820694 -248.65601135 106.61938263 -249.55740356 106.70301819 C-257.35927461 107.37656813 -265.11108903 107.45182722 -272.9375 107.25 C-271.31501762 103.34298784 -268.65963036 100.49033121 -265.8125 97.4375 C-265.31459961 96.90125 -264.81669922 96.365 -264.30371094 95.8125 C-260.40246196 91.6572045 -256.36208947 87.84777224 -251.9375 84.25 C-251.43831055 83.83314941 -250.93912109 83.41629883 -250.42480469 82.98681641 C-191.09352443 33.45225654 -111.04005366 8.69162407 -34.9375 1.25 C-34.01686768 1.1557373 -33.09623535 1.06147461 -32.14770508 0.96435547 C-21.45039578 -0.00411095 -10.73253726 0.00641436 0 0 Z " fill="#DB2D09" transform="translate(1262.9375,539.75)"/>
<path d="M0 0 C2.19785697 2.00622071 4.35901056 4.04674641 6.50390625 6.109375 C8.62869425 8.14069726 10.77186315 10.04534409 13.04296875 11.90625 C16.04196975 14.44555012 18.57993135 17.23766904 21.11328125 20.23828125 C22.63903341 22.03379568 24.20254131 23.79736809 25.78515625 25.54296875 C68.43200838 72.96528577 85.970417 137.79033032 83.03173828 200.56640625 C80.83024095 237.23724001 71.46069594 272.22726184 54.16796875 304.65625 C53.82685059 305.30513184 53.48573242 305.95401367 53.13427734 306.62255859 C44.41064993 323.12309466 33.59221329 337.76957723 21.16796875 351.65625 C20.26908869 352.67799625 19.37063779 353.70012024 18.47265625 354.72265625 C13.66108159 360.13015989 8.72231795 365.02762567 3.16796875 369.65625 C2.24757813 370.46449219 1.3271875 371.27273438 0.37890625 372.10546875 C-31.91608062 400.35973151 -71.72815053 418.12832122 -113.83203125 425.65625 C-114.70537109 425.81996094 -115.57871094 425.98367188 -116.47851562 426.15234375 C-144.4280806 431.19618769 -175.7467143 430.52501161 -203.83203125 426.65625 C-204.7947998 426.52734375 -205.75756836 426.3984375 -206.74951172 426.265625 C-253.14012645 419.84333833 -290.51581864 400.10018049 -324.83203125 368.65625 C-325.87456697 367.71826848 -326.91755747 366.78079224 -327.9609375 365.84375 C-374.33557339 323.95965226 -401.00699339 267.15993648 -404.68701172 204.79882812 C-406.79647561 159.08667465 -399.19117024 113.92839662 -378.83203125 72.65625 C-378.42227051 71.81900391 -378.01250977 70.98175781 -377.59033203 70.11914062 C-363.82071818 42.24294797 -345.43943385 18.68941249 -320.53320312 -0.05273438 C-318.90189059 -1.2907339 -317.29383696 -2.55305088 -315.69140625 -3.828125 C-235.52756277 -67.07296634 -139.17779405 -77.47779023 0 0 Z " fill="#F8A209" transform="translate(832.83203125,61.34375)"/>
<path d="M0 0 C1.30131615 -0.0146228 1.30131615 -0.0146228 2.62892151 -0.02954102 C22.27752823 -0.20485076 41.27063825 0.07338485 60.56640625 4.23828125 C61.44039062 4.42551758 62.314375 4.61275391 63.21484375 4.80566406 C90.10474907 10.79383913 115.71022138 22.45019722 137.56640625 39.23828125 C138.83871094 40.20121094 138.83871094 40.20121094 140.13671875 41.18359375 C153.19103289 51.43220456 165.18416987 63.53144906 174.56640625 77.23828125 C175.2612915 78.24785889 175.2612915 78.24785889 175.97021484 79.27783203 C191.59201526 102.27587934 201.86365236 127.34839738 208.44140625 154.30078125 C208.6326709 155.08404785 208.82393555 155.86731445 209.02099609 156.67431641 C211.87233206 169.13369638 212.93473309 181.60239828 212.87890625 194.36328125 C212.87617203 195.36675598 212.87617203 195.36675598 212.87338257 196.39050293 C212.6984635 234.8088849 200.35857561 273.14198817 177.56640625 304.23828125 C176.798125 305.29015625 176.02984375 306.34203125 175.23828125 307.42578125 C169.49090972 315.15216818 163.21742841 322.28322583 156.56640625 329.23828125 C155.69242188 330.16511719 154.8184375 331.09195312 153.91796875 332.046875 C124.24514298 362.72039724 83.67316659 381.80584905 41.56640625 387.23828125 C40.57253906 387.36976563 39.57867188 387.50125 38.5546875 387.63671875 C-0.99454616 391.81167352 -41.6291328 383.22083249 -76.43359375 364.23828125 C-77.03075195 363.91891602 -77.62791016 363.59955078 -78.24316406 363.27050781 C-109.80462699 346.3287961 -136.73906123 320.38368967 -154.43359375 289.23828125 C-155.08714844 288.11679687 -155.74070312 286.9953125 -156.4140625 285.83984375 C-181.38290724 241.91183025 -183.68727473 189.41430179 -171.1640625 141.2890625 C-168.59957326 132.00333256 -165.21652915 123.08929877 -161.43359375 114.23828125 C-161.11664551 113.49143066 -160.79969727 112.74458008 -160.47314453 111.97509766 C-153.33984952 95.4194928 -143.93735325 80.11144682 -132.43359375 66.23828125 C-131.69592773 65.34834473 -131.69592773 65.34834473 -130.94335938 64.44042969 C-122.17767497 53.93150691 -113.22420243 44.7185581 -102.43359375 36.23828125 C-101.91893555 35.820625 -101.40427734 35.40296875 -100.87402344 34.97265625 C-72.39209865 11.95135612 -36.41329686 0.34329557 0 0 Z " fill="#E42C03" transform="translate(1261.43359375,102.76171875)"/>
</svg>
